<svg xmlns="http://www.w3.org/2000/svg" viewBox="0 0 477 477"><g fill="#362823"><path d="M238.4 0C133 0 47.2 85.8 47.2 191.2c0 12 1.1 24.1 3.4 35.9.1.7.5 2.8 1.3 6.4 2.9 12.9 7.2 25.6 12.8 37.7 20.6 48.5 65.9 123 165.3 202.8 2.5 2 5.5 3 8.5 3s6-1 8.5-3c99.3-79.8 144.7-154.3 165.3-202.8 5.6-12.1 9.9-24.7 12.8-37.7.8-3.6 1.2-5.7 1.3-6.4 2.2-11.8 3.4-23.9 3.4-35.9C429.6 85.8 343.8 0 238.4 0zm161.2 222.4c0 .2-.1.4-.1.6-.1.5-.4 2-.9 4.3v.2c-2.5 11.2-6.2 22.1-11.1 32.6-.1.1-.1.3-.2.4-18.7 44.3-59.7 111.9-148.9 185.6-89.2-73.7-130.2-141.3-148.9-185.6-.1-.1-.1-.3-.2-.4-4.8-10.4-8.5-21.4-11.1-32.6v-.2c-.6-2.3-.8-3.8-.9-4.3 0-.2-.1-.4-.1-.7-2-10.3-3-20.7-3-31.2 0-90.5 73.7-164.2 164.2-164.2s164.2 73.7 164.2 164.2c0 10.6-1 21.1-3 31.3z"/><path d="M238.4 71.9c-66.9 0-121.4 54.5-121.4 121.4s54.5 121.4 121.4 121.4 121.4-54.5 121.4-121.4S305.3 71.9 238.4 71.9zm0 215.8c-52.1 0-94.4-42.4-94.4-94.4s42.4-94.4 94.4-94.4 94.4 42.4 94.4 94.4-42.3 94.4-94.4 94.4z"/></g></svg>