<?xml version="1.0" encoding="UTF-8"?> <svg xmlns="http://www.w3.org/2000/svg" viewBox="0 0 763.82 117.14"> <defs> <style>.cls-1{fill:#f3bd48;}.cls-2{fill:#75391c;}</style> </defs> <title>Asset 1</title> <g id="Layer_2" data-name="Layer 2"> <g id="Layer_1-2" data-name="Layer 1"> <path class="cls-1" d="M377.56,28.64c-4.8-16-16.4-25.58-32.67-26.86-1.39-.11-2.69-.17-4-.17-14.6,0-25.92,5.82-33.74,17.32-4.91-9.31-14-15.59-25.53-17a40.12,40.12,0,0,0-4.94-.32,35.72,35.72,0,0,0-25.12,9.92A32.94,32.94,0,0,0,232.21,2a38.93,38.93,0,0,0-5-.34C213.39,1.61,202,8.1,195.51,19.1c-6-10.26-15.86-16.32-28.59-17.32-1.39-.11-2.68-.17-4-.17-14.61,0-25.92,5.82-33.74,17.32-4.91-9.31-14-15.59-25.53-17a40.12,40.12,0,0,0-4.94-.32,35.72,35.72,0,0,0-25.12,9.92A33,33,0,0,0,54.24,2a38.93,38.93,0,0,0-5-.34c-17.71,0-31.49,10.67-35.94,27.87L2.58,71.63A77.6,77.6,0,0,0,.13,84.33a29.9,29.9,0,0,0,7.51,23.16c5.7,6.22,13.87,9.65,23,9.65a35.43,35.43,0,0,0,5.66-.45,32.71,32.71,0,0,0,18.41-9.52,32.92,32.92,0,0,0,13.44,2.89,35.21,35.21,0,0,0,5.89-.5,32.61,32.61,0,0,0,7.14-2.09c5.76,6.2,14,9.67,23.24,9.67a35.55,35.55,0,0,0,5.67-.45A32.79,32.79,0,0,0,118,114.4a32.89,32.89,0,0,0,13.26,2.74,31.88,31.88,0,0,0,6.37-.65,35.36,35.36,0,0,0,19.25-11.24,31.74,31.74,0,0,0,24.91,11.89,34,34,0,0,0,6.27-.58,32.65,32.65,0,0,0,7.19-2.19,33,33,0,0,0,13.39,2.77,35.43,35.43,0,0,0,5.66-.45,32.71,32.71,0,0,0,18.41-9.52,32.92,32.92,0,0,0,13.44,2.89,35.21,35.21,0,0,0,5.89-.5,32.61,32.61,0,0,0,7.14-2.09c5.76,6.2,14,9.67,23.24,9.67a35.55,35.55,0,0,0,5.67-.45A32.79,32.79,0,0,0,296,114.4a32.89,32.89,0,0,0,13.26,2.74,31.8,31.8,0,0,0,6.37-.65,35.36,35.36,0,0,0,19.25-11.24,31.74,31.74,0,0,0,24.91,11.89,34,34,0,0,0,6.27-.58c14.38-2.65,25.29-14.41,26.52-28.57.55-6.23-1.36-13.34-2.56-17.07Z"></path> <path class="cls-1" d="M761.16,70.92,748.75,28.64c-4.79-16-16.4-25.58-32.67-26.86-1.39-.11-2.68-.17-4-.17-14.6,0-25.92,5.82-33.74,17.32-4.91-9.31-14-15.59-25.53-17a40,40,0,0,0-4.94-.32,35.72,35.72,0,0,0-25.12,9.92A32.94,32.94,0,0,0,603.4,2a38.9,38.9,0,0,0-5-.34,36.72,36.72,0,0,0-25.94,10.18C564,4.8,552.82.69,540.5.09,539.31,0,538.21,0,537.15,0c-15,0-28.53,4.75-39,13.73q-1.25,1.06-2.43,2.22C489.62,6.63,480.06,1.11,468.05.16c-1.39-.11-2.68-.16-4-.16-17.17,0-29.79,8-37.52,23.89,0,.08-6.72,14.34-19.87,42.42-2.18,4.34-4.85,10.7-5.35,16.42a29.58,29.58,0,0,0,7.64,22.8,31.22,31.22,0,0,0,23.3,10h50.62c1.46,0,3.36-.17,3.8-.22a33,33,0,0,0,15.47-5.81,57.6,57.6,0,0,0,28.42,7.05c1.07,0,2.17,0,3.35-.09a61.61,61.61,0,0,0,25.24-6.64,31.14,31.14,0,0,0,20.62,7.33,35.64,35.64,0,0,0,5.67-.45,32.68,32.68,0,0,0,18.4-9.52,33,33,0,0,0,13.44,2.89,35.21,35.21,0,0,0,5.89-.5,32.45,32.45,0,0,0,7.14-2.09c5.76,6.2,14,9.67,23.24,9.67a35.55,35.55,0,0,0,5.67-.45,32.79,32.79,0,0,0,7.88-2.29,32.89,32.89,0,0,0,13.26,2.74,32,32,0,0,0,6.38-.65,35.09,35.09,0,0,0,19.16-11.24,31.84,31.84,0,0,0,25,11.89,33.84,33.84,0,0,0,6.26-.58c14.39-2.65,25.29-14.41,26.52-28.57.55-6.23-1.36-13.34-2.56-17.07"></path> <path class="cls-2" d="M372.29,30.22c-5.25-17.59-18-22.2-27.83-23-1.25-.09-2.4-.14-3.53-.14-15.09,0-25.75,6.79-32.57,20.77l-2.7,5.75v-.16C304.63,19.34,295,9.1,281,7.38a33.2,33.2,0,0,0-4.27-.27c-7.31,0-17.37,2.33-25.34,12.92A27.51,27.51,0,0,0,231.48,7.4a31.41,31.41,0,0,0-4.28-.29c-15.09,0-26.83,9.08-30.62,23.72l-1,3.79-1.3-4.4c-5.25-17.59-18-22.2-27.83-23-1.25-.09-2.4-.14-3.53-.14-15.1,0-25.75,6.79-32.57,20.77l-2.69,5.75,0-.16C126.66,19.34,117,9.1,103,7.38a33.2,33.2,0,0,0-4.27-.27C91.44,7.11,81.38,9.44,73.41,20A27.49,27.49,0,0,0,53.51,7.4a31.41,31.41,0,0,0-4.28-.29c-15.09,0-26.83,9.08-30.62,23.72L7.88,73.05A72.37,72.37,0,0,0,5.6,84.81a24.49,24.49,0,0,0,6.09,19c4.65,5.07,11.38,7.86,19,7.86a29.21,29.21,0,0,0,4.79-.38,26.9,26.9,0,0,0,18-11.1,26.54,26.54,0,0,0,14.75,4.41,28.4,28.4,0,0,0,5-.43,26.21,26.21,0,0,0,9.57-3.63c4.66,7.11,12.45,11.13,21.74,11.13a29.21,29.21,0,0,0,4.79-.38,27.25,27.25,0,0,0,8.79-3,27.45,27.45,0,0,0,18.51,2.82c5.82-1.19,14.42-4.87,20.64-15.63,4.9,10.29,14.16,16.16,24.61,16.16a29.19,29.19,0,0,0,5.27-.48,27.51,27.51,0,0,0,8.23-2.91,26.78,26.78,0,0,0,13.35,3.39,29.21,29.21,0,0,0,4.79-.38,26.9,26.9,0,0,0,18-11.1,26.54,26.54,0,0,0,14.75,4.41,28.48,28.48,0,0,0,5-.43,26.21,26.21,0,0,0,9.57-3.63c4.66,7.11,12.45,11.13,21.74,11.13a29.3,29.3,0,0,0,4.79-.38,27.25,27.25,0,0,0,8.79-3,27.45,27.45,0,0,0,18.51,2.82c5.82-1.19,14.42-4.87,20.64-15.63,4.9,10.29,14.16,16.16,24.61,16.16a29.38,29.38,0,0,0,5.28-.48c12-2.21,21-11.94,22-23.65.47-5.3-1.28-11.69-2.34-15Z"></path> <path class="cls-2" d="M755.91,72.54,743.49,30.22c-5.26-17.59-18-22.2-27.84-23-1.25-.09-2.4-.14-3.53-.14-15.09,0-25.75,6.79-32.57,20.77l-2.69,5.75,0-.16c-1-14.13-10.7-24.37-24.66-26.09a33.09,33.09,0,0,0-4.27-.27c-7.31,0-17.37,2.33-25.33,12.92A27.52,27.52,0,0,0,602.67,7.4a31.27,31.27,0,0,0-4.27-.29c-10.78,0-19.83,4.63-25.52,12.6C565,11.24,553.45,6.23,540.23,5.57c-1.11-.05-2.12-.08-3.08-.08-13.71,0-26,4.29-35.46,12.41a47,47,0,0,0-7.23,7.77c-5.74-15.17-17.61-19.3-26.84-20-1.25-.1-2.4-.15-3.53-.15-15.1,0-25.75,6.8-32.57,20.78L411.65,68.7c-1.62,3.21-4.38,9.37-4.83,14.51A24.15,24.15,0,0,0,413,101.83a25.81,25.81,0,0,0,19.25,8.2h50.62c1.12,0,2.73-.13,3.2-.18a27.73,27.73,0,0,0,15.67-7.07c7.88,5.38,17.82,8.27,28.82,8.27,1,0,2,0,3.08-.09a54.84,54.84,0,0,0,26.46-8c.23.28.47.56.72.83,4.64,5.07,11.37,7.86,18.95,7.86a29.21,29.21,0,0,0,4.79-.38,27,27,0,0,0,18-11.1,26.5,26.5,0,0,0,14.74,4.41,28.4,28.4,0,0,0,5-.43,26.26,26.26,0,0,0,9.58-3.63c4.65,7.11,12.44,11.13,21.73,11.13a29.21,29.21,0,0,0,4.79-.38,27.25,27.25,0,0,0,8.79-3,27.45,27.45,0,0,0,18.51,2.82c5.82-1.19,14.32-4.87,20.55-15.63,4.9,10.29,14.25,16.16,24.71,16.16a29.08,29.08,0,0,0,5.26-.48c12-2.21,21-11.94,22-23.65.47-5.3-1.28-11.69-2.34-15"></path> <path class="cls-1" d="M112.34,34.62c-.44-6.38-4.17-11.11-11.2-12a15.61,15.61,0,0,0-2,.4,15.61,15.61,0,0,1,2-.4,20.3,20.3,0,0,0-2.39-.15c-7.58,0-12.62,4.55-16.22,12.13l-8.8,17.84-2.8,5.68-7.6-23.52c-2.12-6.8-5.69-11.15-11.86-12a17.66,17.66,0,0,0-2.24-.15c-8.58,0-13.88,5.06-15.72,12.13L22.73,77.06a58.76,58.76,0,0,0-1.81,9.1c-.53,6.07,3.16,10.11,9.73,10.11A14.68,14.68,0,0,0,33,96.08c5.27-.85,8.82-4.61,10.17-9.92l7.32-28,6.44,20.89c1.85,6.56,5.17,10.1,11.24,10.1A13.5,13.5,0,0,0,70.5,89c4.74-.82,8-4.23,10.67-9.9l10-20.87.9,9.87,1.58,18.07c.47,6.07,4.16,10.11,10.74,10.11a14.78,14.78,0,0,0,2.34-.19,10.51,10.51,0,0,0,9.15-9.92,55.49,55.49,0,0,0-.21-9.1Zm-8,60.77L104,95.2l.41.19M98.87,23.11h0l-.21.07.21-.07m-48.64-.27c-.36.07-.71.15-1.06.24.35-.09.69-.17,1.06-.24M27.46,93.12a7.72,7.72,0,0,0,1.68,1.48,7.72,7.72,0,0,1-1.68-1.48m3.29,2.34h0c.33.13.66.24,1,.34-.34-.1-.67-.21-1-.34M50.47,57.61a.73.73,0,0,0-.06.3h0a.73.73,0,0,1,.06-.3M62.76,82.42a15.55,15.55,0,0,0,1.36,2.43,15.55,15.55,0,0,1-1.36-2.43m4.35,5.31a9.86,9.86,0,0,0,1.07.56,9.86,9.86,0,0,1-1.07-.56M86.63,58.17h0Zm4.63-.56c.19-.45.88-.72,2.09-.72-1.21,0-1.89.28-2.09.72m12,37.23-.39-.24.39.24m-1-.69a3.92,3.92,0,0,1-.32-.25,3.92,3.92,0,0,0,.32.25"></path> <path class="cls-1" d="M179.59,34.62c-2.09-7-5.86-11.37-14.31-12-.74-.06-1.5-.1-2.32-.1-10.1,0-15.05,4.55-18.75,12.13L124.33,77.06s-3,6.06-3.32,9.1c-.49,5.56,3.66,10.11,10.23,10.11a11.5,11.5,0,0,0,2.21-.23c4.52-.92,8.16-4.64,10.8-9.88l3.09-6.06h21.19l2,6.06c2,6.07,5.68,10.11,11.24,10.11a14.2,14.2,0,0,0,2.48-.23,11.3,11.3,0,0,0,9.52-9.88c.27-3-1.72-9.1-1.72-9.1Zm-23.25,10.8h0Zm9.24,0h0l0,0ZM163,22.89c.35-.07.7-.12,1.07-.17-.36.05-.72.1-1.07.17h0m-1.6.35a16.3,16.3,0,0,0-6.9,3.58,16.19,16.19,0,0,1,6.9-3.58m-33.64,69.6a9.36,9.36,0,0,0,2.7,2.14,9.36,9.36,0,0,1-2.7-2.14M158.1,61.9h-4.65l4.64-10.22,2.84-6.26h0l1.93,6.83,2.72,9.66Zm20.81,31a11.18,11.18,0,0,0,2,1.72,11.18,11.18,0,0,1-2-1.72"></path> <path class="cls-1" d="M290.31,34.62c-.44-6.38-4.17-11.11-11.2-12a15.61,15.61,0,0,0-2,.4,15.61,15.61,0,0,1,2-.4,20.16,20.16,0,0,0-2.39-.15c-7.58,0-12.62,4.55-16.22,12.13l-8.8,17.84-2.8,5.68-7.6-23.52c-2.12-6.8-5.69-11.15-11.86-12a17.66,17.66,0,0,0-2.24-.15c-8.59,0-13.88,5.06-15.71,12.13L200.7,77.06a58.76,58.76,0,0,0-1.81,9.1c-.53,6.07,3.16,10.11,9.73,10.11a14.78,14.78,0,0,0,2.34-.19c5.28-.85,8.82-4.61,10.17-9.92l7.32-28,6.44,20.89c1.84,6.56,5.17,10.1,11.24,10.1a13.59,13.59,0,0,0,2.34-.2c4.74-.82,8-4.23,10.67-9.9l10-20.87.9,9.87,1.58,18.07c.47,6.07,4.16,10.11,10.74,10.11a14.78,14.78,0,0,0,2.34-.19,10.5,10.5,0,0,0,9.15-9.92,54.27,54.27,0,0,0-.21-9.1Zm-8,60.77-.41-.19.41.19m-5.49-72.28h0l-.2.07.2-.07m-48.64-.27c-.36.07-.72.15-1.06.24.34-.09.7-.17,1.06-.24M205.42,93.12A7.85,7.85,0,0,0,207.73,95a7.85,7.85,0,0,1-2.31-1.87M207.76,95h0m20.68-37.4a.73.73,0,0,0-.06.3.73.73,0,0,1,.06-.3m12.29,24.81a15.55,15.55,0,0,0,1.36,2.43,15.55,15.55,0,0,1-1.36-2.43M243,86a9.24,9.24,0,0,0,2,1.64A9.24,9.24,0,0,1,243,86m2,1.69a9.86,9.86,0,0,0,1.07.56,9.86,9.86,0,0,1-1.07-.56M264.6,58.17h0Zm4.63-.56c.19-.45.88-.72,2.09-.72-1.21,0-1.89.28-2.09.72m12,37.23-.41-.24.41.24m-1-.69a4.08,4.08,0,0,1-.33-.25,4.08,4.08,0,0,0,.33.25"></path> <path class="cls-1" d="M357.55,34.62c-2.07-7-5.85-11.37-14.3-12-.74-.06-1.5-.1-2.32-.1-10.1,0-15.05,4.55-18.74,12.13L302.3,77.06s-3.05,6.06-3.32,9.1c-.49,5.56,3.66,10.11,10.23,10.11a11.42,11.42,0,0,0,2.21-.23c4.52-.92,8.16-4.64,10.8-9.88l3.09-6.06h21.2l2,6.06c2,6.07,5.68,10.11,11.24,10.11a14.2,14.2,0,0,0,2.48-.23,11.28,11.28,0,0,0,9.52-9.88c.27-3-1.73-9.1-1.73-9.1ZM340.93,22.89c.35-.07.7-.12,1.07-.17-.36.05-.72.1-1.07.17h0a13.63,13.63,0,0,1,10.8,8.41,13.63,13.63,0,0,0-10.8-8.41Zm-6.62,22.53h0Zm9.24,0h0l0,0Zm-2.63-22.53a16.84,16.84,0,0,0-8.49,3.93,16.84,16.84,0,0,1,8.49-3.93m-35.23,70a9.36,9.36,0,0,0,2.7,2.14,9.36,9.36,0,0,1-2.7-2.14M336.07,61.9h-4.65l4.64-10.22,2.84-6.26h0l1.93,6.83,2.72,9.66Zm18.37,27.41a17.72,17.72,0,0,0,1.46,2.41,17.13,17.13,0,0,1-1.46-2.41m2.44,3.6a11.18,11.18,0,0,0,2,1.72,11.18,11.18,0,0,1-2-1.72m3.2,2.4h0a11.22,11.22,0,0,0,6.61-6.94,11.22,11.22,0,0,1-6.61,6.94"></path> <path class="cls-1" d="M539.47,20.94c-.78,0-1.56.1-2.32.18a41.12,41.12,0,0,0-10.23,2.32,41.76,41.76,0,0,1,12.55-2.5c-.76,0-1.53-.07-2.32-.07-20.71,0-35,13.14-36.51,30.33L499.4,65.34c-1.5,17.19,10.49,30.33,31.2,30.33.79,0,1.57,0,2.34-.07-.76,0-1.5-.1-2.22-.17.73.07,1.46.13,2.22.17,19.45-.95,32.72-13.73,34.17-30.26l1.24-14.14c1.44-16.53-9.6-29.32-28.88-30.26m-3.83,17.11a9.6,9.6,0,0,1,2.3.27c4.89,1.12,8.29,5.85,7.67,12.88l-1.23,14.14c-.62,7-4.85,11.76-9.93,12.88a10.24,10.24,0,0,1-4.63,0c-4.89-1.12-8.29-5.86-7.68-12.89l1.24-14.14c.61-7,4.85-11.78,9.93-12.89a10.67,10.67,0,0,1,2.33-.26m-14.86,55c-.7-.28-1.37-.58-2-.91.66.33,1.33.63,2,.91m-2.2-1c-.64-.31-1.25-.64-1.85-1,.6.35,1.21.68,1.85,1m9.4,3a36,36,0,0,1-7.15-2,36,36,0,0,0,7.15,2m2.62.35c-.88-.09-1.75-.21-2.59-.35.84.14,1.71.26,2.59.35m-5.92-71.06c.72-.32,1.45-.62,2.2-.9-.75.28-1.48.58-2.2.9m-2.2,1.08c.66-.35,1.33-.68,2-1-.69.31-1.36.64-2,1m-2.3,1.33c-.63.41-1.25.82-1.85,1.26.6-.44,1.22-.85,1.85-1.26m2.08-1.21c-.65.35-1.29.71-1.91,1.1.62-.39,1.26-.75,1.91-1.1M516.53,91c-.59-.36-1.16-.72-1.71-1.11.55.39,1.12.75,1.71,1.11m-1.87-1.22c-.56-.4-1.1-.82-1.63-1.26.53.44,1.07.86,1.63,1.26"></path> <path class="cls-1" d="M480.72,33c-2.09-7-5.86-11.36-14.31-12-.74-.06-1.5-.1-2.32-.1-10.1,0-15,4.55-18.74,12.13L425.47,75.45s-3.06,6.06-3.33,9.1c-.48,5.54,3.65,10.08,10.19,10.1h50.58c.31,0,1.32-.07,1.52-.09,5.79-.64,10-4.9,10.47-10,.27-3-1.72-9.1-1.72-9.1ZM450.81,74.48l8.34-21.36,2.46-6.3.45-1.16v0l1.71,7.53,4.59,21.28H450.81Zm23.59-45.8a13.52,13.52,0,0,0-10.32-7.41,17,17,0,0,0-8.5,3.94,16.93,16.93,0,0,1,8.5-3.94h0a13.52,13.52,0,0,1,10.31,7.41,20.41,20.41,0,0,1,.93,2.06,20.41,20.41,0,0,0-.93-2.06"></path> <path class="cls-1" d="M661.51,34.62c-.45-6.38-4.17-11.11-11.21-12a15.11,15.11,0,0,0-2,.4,15.11,15.11,0,0,1,2-.4,20.16,20.16,0,0,0-2.39-.15c-7.57,0-12.62,4.55-16.22,12.13l-8.8,17.84-2.8,5.68-7.6-23.52c-2.12-6.8-5.68-11.15-11.86-12a17.76,17.76,0,0,0-2.23-.15c-8.59,0-13.89,5.06-15.72,12.13L571.89,77.06a58,58,0,0,0-1.8,9.1c-.54,6.07,3.15,10.11,9.72,10.11a14.59,14.59,0,0,0,2.34-.19c5.28-.85,8.82-4.61,10.17-9.92l7.33-28,6.43,20.89c1.85,6.56,5.17,10.1,11.24,10.1a13.5,13.5,0,0,0,2.34-.2c4.74-.82,8-4.23,10.67-9.9l10-20.87.9,9.87,1.58,18.07c.48,6.07,4.16,10.11,10.74,10.11a14.78,14.78,0,0,0,2.34-.19,10.5,10.5,0,0,0,9.15-9.92,54.27,54.27,0,0,0-.21-9.1Zm-8,60.77-.4-.19.4.19M599.58,57.91v0m-.19-35.07q-.54.11-1,.24.51-.13,1-.24M576.62,93.12a8,8,0,0,0,2.11,1.75,8,8,0,0,1-2.11-1.75m3.29,2.34ZM599.58,58h0a1.52,1.52,0,0,0,0,.21.76.76,0,0,1,0-.21m12.35,24.47a14.08,14.08,0,0,0,1.36,2.43,14.08,14.08,0,0,1-1.36-2.43m4.34,5.31a8.3,8.3,0,0,0,1.07.55,9.8,9.8,0,0,1-1.07-.55M635.8,58.17h0Zm4.62-.56c.2-.45.88-.72,2.09-.72-1.21,0-1.89.28-2.09.72m12,37.23-.38-.23.38.23m-1-.7c-.1-.08-.21-.15-.3-.23.09.08.2.15.3.23"></path> <path class="cls-1" d="M741.21,77.06,728.75,34.62c-2.08-7-5.86-11.37-14.31-12-.74-.06-1.5-.1-2.32-.1-10.1,0-15,4.55-18.74,12.13L673.49,77.06s-3,6.06-3.32,9.1c-.48,5.56,3.67,10.11,10.23,10.11a11.42,11.42,0,0,0,2.21-.23c4.53-.92,8.16-4.64,10.81-9.88l3.08-6.06h21.19l2,6.06c2,6.07,5.69,10.11,11.25,10.11a14.08,14.08,0,0,0,2.47-.23,11.28,11.28,0,0,0,9.52-9.88c.27-3-1.72-9.1-1.72-9.1M705.5,45.42h0Zm9.24,0h0l0,0Zm-2.62-22.53c.35-.07.7-.12,1.07-.17-.36.05-.72.1-1.07.17h0Zm0,0a16.88,16.88,0,0,0-8.49,3.93,16.88,16.88,0,0,1,8.49-3.93m-35.22,70A9.19,9.19,0,0,0,679.58,95a9.19,9.19,0,0,1-2.69-2.14M707.26,61.9h-4.65l4.64-10.22,2.85-6.26h0L712,52.24l2.72,9.66Z"></path> </g> </g> </svg> 