<svg xmlns="http://www.w3.org/2000/svg" viewBox="0 0 763.82 117.14"><defs><style>.cls-1{fill:#fecc16}</style></defs><g id="Layer_2" data-name="Layer 2"><g id="Layer_1-2" data-name="Layer 1"><path class="cls-1" d="M377.56 28.64c-4.8-16-16.4-25.58-32.67-26.86-1.39-.11-2.69-.17-4-.17-14.6 0-25.92 5.82-33.74 17.32-4.91-9.31-14-15.59-25.53-17a40.12 40.12 0 00-4.94-.32 35.72 35.72 0 00-25.12 9.92A32.94 32.94 0 00232.21 2a38.93 38.93 0 00-5-.34C213.39 1.61 202 8.1 195.51 19.1c-6-10.26-15.86-16.32-28.59-17.32-1.39-.11-2.68-.17-4-.17-14.61 0-25.92 5.82-33.74 17.32-4.91-9.31-14-15.59-25.53-17a40.12 40.12 0 00-4.94-.32 35.72 35.72 0 00-25.12 9.92A33 33 0 0054.24 2a38.93 38.93 0 00-5-.34c-17.71 0-31.49 10.67-35.94 27.87L2.58 71.63a77.6 77.6 0 00-2.45 12.7 29.9 29.9 0 007.51 23.16c5.7 6.22 13.87 9.65 23 9.65a35.43 35.43 0 005.66-.45 32.71 32.71 0 0018.41-9.52 32.92 32.92 0 0013.44 2.89 35.21 35.21 0 005.89-.5 32.61 32.61 0 007.14-2.09c5.76 6.2 14 9.67 23.24 9.67a35.55 35.55 0 005.67-.45 32.79 32.79 0 007.91-2.29 32.89 32.89 0 0013.26 2.74 31.88 31.88 0 006.37-.65 35.36 35.36 0 0019.25-11.24 31.74 31.74 0 0024.91 11.89 34 34 0 006.27-.58 32.65 32.65 0 007.19-2.19 33 33 0 0013.39 2.77 35.43 35.43 0 005.66-.45 32.71 32.71 0 0018.41-9.52 32.92 32.92 0 0013.44 2.89 35.21 35.21 0 005.89-.5 32.61 32.61 0 007.14-2.09c5.76 6.2 14 9.67 23.24 9.67a35.55 35.55 0 005.67-.45 32.79 32.79 0 007.91-2.29 32.89 32.89 0 0013.26 2.74 31.8 31.8 0 006.37-.65 35.36 35.36 0 0019.25-11.24 31.74 31.74 0 0024.91 11.89 34 34 0 006.27-.58c14.38-2.65 25.29-14.41 26.52-28.57.55-6.23-1.36-13.34-2.56-17.07zm383.6 42.28l-12.41-42.28c-4.79-16-16.4-25.58-32.67-26.86-1.39-.11-2.68-.17-4-.17-14.6 0-25.92 5.82-33.74 17.32-4.91-9.31-14-15.59-25.53-17a40 40 0 00-4.94-.32 35.72 35.72 0 00-25.12 9.92A32.94 32.94 0 00603.4 2a38.9 38.9 0 00-5-.34 36.72 36.72 0 00-25.94 10.18C564 4.8 552.82.69 540.5.09 539.31 0 538.21 0 537.15 0c-15 0-28.53 4.75-39 13.73q-1.25 1.06-2.43 2.22c-6.1-9.32-15.66-14.84-27.67-15.79-1.39-.11-2.68-.16-4-.16-17.17 0-29.79 8-37.52 23.89 0 .08-6.72 14.34-19.87 42.42-2.18 4.34-4.85 10.7-5.35 16.42a29.58 29.58 0 007.64 22.8 31.22 31.22 0 0023.3 10h50.62c1.46 0 3.36-.17 3.8-.22a33 33 0 0015.47-5.81 57.6 57.6 0 0028.42 7.05c1.07 0 2.17 0 3.35-.09a61.61 61.61 0 0025.24-6.64 31.14 31.14 0 0020.62 7.33 35.64 35.64 0 005.67-.45 32.68 32.68 0 0018.4-9.52 33 33 0 0013.44 2.89 35.21 35.21 0 005.89-.5 32.45 32.45 0 007.14-2.09c5.76 6.2 14 9.67 23.24 9.67a35.55 35.55 0 005.67-.45 32.79 32.79 0 007.88-2.29 32.89 32.89 0 0013.26 2.74 32 32 0 006.38-.65 35.09 35.09 0 0019.16-11.24 31.84 31.84 0 0025 11.89 33.84 33.84 0 006.26-.58c14.39-2.65 25.29-14.41 26.52-28.57.55-6.23-1.36-13.34-2.56-17.07"/><path d="M372.29 30.22c-5.25-17.59-18-22.2-27.83-23-1.25-.09-2.4-.14-3.53-.14-15.09 0-25.75 6.79-32.57 20.77l-2.7 5.75v-.16C304.63 19.34 295 9.1 281 7.38a33.2 33.2 0 00-4.27-.27c-7.31 0-17.37 2.33-25.34 12.92A27.51 27.51 0 00231.48 7.4a31.41 31.41 0 00-4.28-.29c-15.09 0-26.83 9.08-30.62 23.72l-1 3.79-1.3-4.4c-5.25-17.59-18-22.2-27.83-23-1.25-.09-2.4-.14-3.53-.14-15.1 0-25.75 6.79-32.57 20.77l-2.69 5.75v-.16C126.66 19.34 117 9.1 103 7.38a33.2 33.2 0 00-4.27-.27c-7.29 0-17.35 2.33-25.32 12.89a27.49 27.49 0 00-19.9-12.6 31.41 31.41 0 00-4.28-.29c-15.09 0-26.83 9.08-30.62 23.72L7.88 73.05A72.37 72.37 0 005.6 84.81a24.49 24.49 0 006.09 19c4.65 5.07 11.38 7.86 19 7.86a29.21 29.21 0 004.79-.38 26.9 26.9 0 0018-11.1 26.54 26.54 0 0014.75 4.41 28.4 28.4 0 005-.43 26.21 26.21 0 009.57-3.63c4.66 7.11 12.45 11.13 21.74 11.13a29.21 29.21 0 004.79-.38 27.25 27.25 0 008.79-3 27.45 27.45 0 0018.51 2.82c5.82-1.19 14.42-4.87 20.64-15.63 4.9 10.29 14.16 16.16 24.61 16.16a29.19 29.19 0 005.27-.48 27.51 27.51 0 008.23-2.91 26.78 26.78 0 0013.35 3.39 29.21 29.21 0 004.79-.38 26.9 26.9 0 0018-11.1 26.54 26.54 0 0014.75 4.41 28.48 28.48 0 005-.43 26.21 26.21 0 009.57-3.63c4.66 7.11 12.45 11.13 21.74 11.13a29.3 29.3 0 004.79-.38 27.25 27.25 0 008.79-3 27.45 27.45 0 0018.51 2.82c5.82-1.19 14.42-4.87 20.64-15.63 4.9 10.29 14.16 16.16 24.61 16.16a29.38 29.38 0 005.28-.48c12-2.21 21-11.94 22-23.65.47-5.3-1.28-11.69-2.34-15zm383.62 42.32l-12.42-42.32c-5.26-17.59-18-22.2-27.84-23-1.25-.09-2.4-.14-3.53-.14-15.09 0-25.75 6.79-32.57 20.77l-2.69 5.75v-.16c-1-14.13-10.7-24.37-24.66-26.09a33.09 33.09 0 00-4.27-.27c-7.31 0-17.37 2.33-25.33 12.92a27.52 27.52 0 00-19.93-12.6 31.27 31.27 0 00-4.27-.29c-10.78 0-19.83 4.63-25.52 12.6-7.88-8.47-19.43-13.48-32.65-14.14-1.11-.05-2.12-.08-3.08-.08-13.71 0-26 4.29-35.46 12.41a47 47 0 00-7.23 7.77c-5.74-15.17-17.61-19.3-26.84-20-1.25-.1-2.4-.15-3.53-.15-15.1 0-25.75 6.8-32.57 20.78l-19.87 42.4c-1.62 3.21-4.38 9.37-4.83 14.51a24.15 24.15 0 006.18 18.62 25.81 25.81 0 0019.25 8.2h50.62c1.12 0 2.73-.13 3.2-.18a27.73 27.73 0 0015.67-7.07c7.88 5.38 17.82 8.27 28.82 8.27 1 0 2 0 3.08-.09a54.84 54.84 0 0026.46-8c.23.28.47.56.72.83 4.64 5.07 11.37 7.86 18.95 7.86a29.21 29.21 0 004.79-.38 27 27 0 0018-11.1 26.5 26.5 0 0014.74 4.41 28.4 28.4 0 005-.43 26.26 26.26 0 009.58-3.63c4.65 7.11 12.44 11.13 21.73 11.13a29.21 29.21 0 004.79-.38 27.25 27.25 0 008.79-3 27.45 27.45 0 0018.51 2.82c5.82-1.19 14.32-4.87 20.55-15.63 4.9 10.29 14.25 16.16 24.71 16.16a29.08 29.08 0 005.26-.48c12-2.21 21-11.94 22-23.65.47-5.3-1.28-11.69-2.34-15" fill="#362823"/><path class="cls-1" d="M112.34 34.62c-.44-6.38-4.17-11.11-11.2-12a15.61 15.61 0 00-2 .4 15.61 15.61 0 012-.4 20.3 20.3 0 00-2.39-.15c-7.58 0-12.62 4.55-16.22 12.13l-8.8 17.84-2.8 5.68-7.6-23.52c-2.12-6.8-5.69-11.15-11.86-12a17.66 17.66 0 00-2.24-.15c-8.58 0-13.88 5.06-15.72 12.13L22.73 77.06a58.76 58.76 0 00-1.81 9.1c-.53 6.07 3.16 10.11 9.73 10.11a14.68 14.68 0 002.35-.19c5.27-.85 8.82-4.61 10.17-9.92l7.32-28 6.44 20.89c1.85 6.56 5.17 10.1 11.24 10.1A13.5 13.5 0 0070.5 89c4.74-.82 8-4.23 10.67-9.9l10-20.87.9 9.87 1.58 18.07c.47 6.07 4.16 10.11 10.74 10.11a14.78 14.78 0 002.34-.19 10.51 10.51 0 009.15-9.92 55.49 55.49 0 00-.21-9.1zm-8 60.77l-.34-.19.41.19m-5.54-72.28l-.21.07.21-.07M27.46 93.12a7.72 7.72 0 001.68 1.48 7.72 7.72 0 01-1.68-1.48m23.01-35.51a.73.73 0 00-.06.3.73.73 0 01.06-.3m12.29 24.81a15.55 15.55 0 001.36 2.43 15.55 15.55 0 01-1.36-2.43m4.35 5.31a9.86 9.86 0 001.07.56 9.86 9.86 0 01-1.07-.56m19.52-29.56zm4.63-.56c.19-.45.88-.72 2.09-.72-1.21 0-1.89.28-2.09.72m12 37.23l-.39-.24.39.24m-1-.69a3.92 3.92 0 01-.32-.25 3.92 3.92 0 00.32.25m77.33-59.53c-2.09-7-5.86-11.37-14.31-12-.74-.06-1.5-.1-2.32-.1-10.1 0-15.05 4.55-18.75 12.13l-19.88 42.41s-3 6.06-3.32 9.1c-.49 5.56 3.66 10.11 10.23 10.11a11.5 11.5 0 002.21-.23c4.52-.92 8.16-4.64 10.8-9.88l3.09-6.06h21.19l2 6.06c2 6.07 5.68 10.11 11.24 10.11a14.2 14.2 0 002.48-.23 11.3 11.3 0 009.52-9.88c.27-3-1.72-9.1-1.72-9.1zm-23.25 10.8zm9.24 0zM163 22.89c.35-.07.7-.12 1.07-.17-.36.05-.72.1-1.07.17m-1.6.35a16.3 16.3 0 00-6.9 3.58 16.19 16.19 0 016.9-3.58m-33.64 69.6a9.36 9.36 0 002.7 2.14 9.36 9.36 0 01-2.7-2.14M158.1 61.9h-4.65l4.64-10.22 2.84-6.26 1.93 6.83 2.72 9.66zm20.81 31a11.18 11.18 0 002 1.72 11.18 11.18 0 01-2-1.72m111.4-58.28c-.44-6.38-4.17-11.11-11.2-12a15.61 15.61 0 00-2 .4 15.61 15.61 0 012-.4 20.16 20.16 0 00-2.39-.15c-7.58 0-12.62 4.55-16.22 12.13l-8.8 17.84-2.8 5.68-7.6-23.52c-2.12-6.8-5.69-11.15-11.86-12a17.66 17.66 0 00-2.24-.15c-8.59 0-13.88 5.06-15.71 12.13L200.7 77.06a58.76 58.76 0 00-1.81 9.1c-.53 6.07 3.16 10.11 9.73 10.11a14.78 14.78 0 002.34-.19c5.28-.85 8.82-4.61 10.17-9.92l7.32-28 6.44 20.89c1.84 6.56 5.17 10.1 11.24 10.1a13.59 13.59 0 002.34-.2c4.74-.82 8-4.23 10.67-9.9l10-20.87.9 9.87 1.58 18.07c.47 6.07 4.16 10.11 10.74 10.11a14.78 14.78 0 002.34-.19 10.5 10.5 0 009.15-9.92 54.27 54.27 0 00-.21-9.1zm-8 60.77l-.41-.19.41.19m-5.49-72.28l-.2.07.2-.07m-71.4 70.01a7.85 7.85 0 002.31 1.88 7.85 7.85 0 01-2.31-1.87m23.02-35.53a.73.73 0 00-.06.3.73.73 0 01.06-.3m12.29 24.81a15.55 15.55 0 001.36 2.43 15.55 15.55 0 01-1.36-2.43M243 86a9.24 9.24 0 002 1.64 9.24 9.24 0 01-2-1.64m2 1.69a9.86 9.86 0 001.07.56 9.86 9.86 0 01-1.07-.56m19.6-29.52zm4.63-.56c.19-.45.88-.72 2.09-.72-1.21 0-1.89.28-2.09.72m12 37.23l-.41-.24.41.24m-1-.69a4.08 4.08 0 01-.33-.25 4.08 4.08 0 00.33.25m77.32-59.53c-2.07-7-5.85-11.37-14.3-12-.74-.06-1.5-.1-2.32-.1-10.1 0-15.05 4.55-18.74 12.13L302.3 77.06s-3.05 6.06-3.32 9.1c-.49 5.56 3.66 10.11 10.23 10.11a11.42 11.42 0 002.21-.23c4.52-.92 8.16-4.64 10.8-9.88l3.09-6.06h21.2l2 6.06c2 6.07 5.68 10.11 11.24 10.11a14.2 14.2 0 002.48-.23 11.28 11.28 0 009.52-9.88c.27-3-1.73-9.1-1.73-9.1zm-16.62-11.73c.35-.07.7-.12 1.07-.17-.36.05-.72.1-1.07.17a13.63 13.63 0 0110.8 8.41 13.63 13.63 0 00-10.8-8.41zm-6.62 22.53zm9.24 0zm-2.63-22.53a16.84 16.84 0 00-8.49 3.93 16.84 16.84 0 018.49-3.93m-35.23 70a9.36 9.36 0 002.7 2.14 9.36 9.36 0 01-2.7-2.14m30.38-30.99h-4.65l4.64-10.22 2.84-6.26 1.93 6.83 2.72 9.66zm18.37 27.41a17.72 17.72 0 001.46 2.41 17.13 17.13 0 01-1.46-2.41m2.44 3.6a11.18 11.18 0 002 1.72 11.18 11.18 0 01-2-1.72m3.2 2.4a11.22 11.22 0 006.61-6.94 11.22 11.22 0 01-6.61 6.94m179.39-74.37c-.78 0-1.56.1-2.32.18a41.12 41.12 0 00-10.23 2.32 41.76 41.76 0 0112.55-2.5c-.76 0-1.53-.07-2.32-.07-20.71 0-35 13.14-36.51 30.33l-1.24 14.14c-1.5 17.19 10.49 30.33 31.2 30.33.79 0 1.57 0 2.34-.07-.76 0-1.5-.1-2.22-.17.73.07 1.46.13 2.22.17 19.45-.95 32.72-13.73 34.17-30.26l1.24-14.14c1.44-16.53-9.6-29.32-28.88-30.26m-3.83 17.11a9.6 9.6 0 012.3.27c4.89 1.12 8.29 5.85 7.67 12.88l-1.23 14.14c-.62 7-4.85 11.76-9.93 12.88a10.24 10.24 0 01-4.63 0c-4.89-1.12-8.29-5.86-7.68-12.89l1.24-14.14c.61-7 4.85-11.78 9.93-12.89a10.67 10.67 0 012.33-.26m-14.86 55c-.7-.28-1.37-.58-2-.91.66.33 1.33.63 2 .91m-2.2-1c-.64-.31-1.25-.64-1.85-1 .6.35 1.21.68 1.85 1m9.4 3a36 36 0 01-7.15-2 36 36 0 007.15 2m-5.5-69.63c.66-.35 1.33-.68 2-1-.69.31-1.36.64-2 1M480.72 33c-2.09-7-5.86-11.36-14.31-12-.74-.06-1.5-.1-2.32-.1-10.1 0-15 4.55-18.74 12.13l-19.88 42.42s-3.06 6.06-3.33 9.1c-.48 5.54 3.65 10.08 10.19 10.1h50.58c.31 0 1.32-.07 1.52-.09 5.79-.64 10-4.9 10.47-10 .27-3-1.72-9.1-1.72-9.1zm-29.91 41.48l8.34-21.36 2.46-6.3.45-1.16 1.71 7.53 4.59 21.28h-17.55zm23.59-45.8a13.52 13.52 0 00-10.32-7.41 17 17 0 00-8.5 3.94 16.93 16.93 0 018.5-3.94 13.52 13.52 0 0110.31 7.41 20.41 20.41 0 01.93 2.06 20.41 20.41 0 00-.93-2.06m187.12 5.94c-.45-6.38-4.17-11.11-11.21-12a15.11 15.11 0 00-2 .4 15.11 15.11 0 012-.4 20.16 20.16 0 00-2.39-.15c-7.57 0-12.62 4.55-16.22 12.13l-8.8 17.84-2.8 5.68-7.6-23.52c-2.12-6.8-5.68-11.15-11.86-12a17.76 17.76 0 00-2.23-.15c-8.59 0-13.89 5.06-15.72 12.13l-10.79 42.48a58 58 0 00-1.8 9.1c-.54 6.07 3.15 10.11 9.72 10.11a14.59 14.59 0 002.34-.19c5.28-.85 8.82-4.61 10.17-9.92l7.33-28 6.43 20.89c1.85 6.56 5.17 10.1 11.24 10.1a13.5 13.5 0 002.34-.2c4.74-.82 8-4.23 10.67-9.9l10-20.87.9 9.87 1.58 18.07c.48 6.07 4.16 10.11 10.74 10.11a14.78 14.78 0 002.34-.19 10.5 10.5 0 009.15-9.92 54.27 54.27 0 00-.21-9.1zm-8 60.77l-.4-.19.4.19m-54.12-72.55q-.54.11-1 .24.51-.13 1-.24m-22.77 70.28a8 8 0 002.11 1.75 8 8 0 01-2.11-1.75m3.29 2.34zM599.58 58a1.52 1.52 0 000 .21.76.76 0 010-.21m12.35 24.47a14.08 14.08 0 001.36 2.43 14.08 14.08 0 01-1.36-2.43m4.34 5.31a8.3 8.3 0 001.07.55 9.8 9.8 0 01-1.07-.55m19.53-29.61zm4.62-.56c.2-.45.88-.72 2.09-.72-1.21 0-1.89.28-2.09.72m12 37.23l-.38-.23.38.23m-1-.7c-.1-.08-.21-.15-.3-.23.09.08.2.15.3.23m89.79-17.08l-12.46-42.44c-2.08-7-5.86-11.37-14.31-12-.74-.06-1.5-.1-2.32-.1-10.1 0-15 4.55-18.74 12.13l-19.89 42.41s-3 6.06-3.32 9.1c-.48 5.56 3.67 10.11 10.23 10.11a11.42 11.42 0 002.21-.23c4.53-.92 8.16-4.64 10.81-9.88l3.08-6.06h21.19l2 6.06c2 6.07 5.69 10.11 11.25 10.11a14.08 14.08 0 002.47-.23 11.28 11.28 0 009.52-9.88c.27-3-1.72-9.1-1.72-9.1M705.5 45.42zm9.24 0zm-2.62-22.53c.35-.07.7-.12 1.07-.17-.36.05-.72.1-1.07.17zm0 0a16.88 16.88 0 00-8.49 3.93 16.88 16.88 0 018.49-3.93m-35.22 70a9.19 9.19 0 002.68 2.11 9.19 9.19 0 01-2.69-2.14m30.37-30.96h-4.65l4.64-10.22 2.85-6.26 1.9 6.82 2.72 9.66z"/></g></g></svg>