<svg xmlns="http://www.w3.org/2000/svg" viewBox="0 0 512 512"><path fill="#fecc16" d="M492.381 104.546c-19.646-27.033-54.05-51.433-96.876-68.703-42.595-17.176-92.051-26.674-139.26-26.742-47.213-.118-96.73 9.282-139.386 26.325-42.9 17.141-77.387 41.435-97.104 68.404C.817 129.733-4.641 157.652 3.97 184.569c5.586 17.462 21.881 29.211 40.558 29.238l63.951.06h.064c12.752-.001 24.733-5.583 32.875-15.322 8.056-9.635 11.393-22.227 9.156-34.549a15.466 15.466 0 00-.236-1.078l-3.365-13.082c18.634-8.891 60.854-26.069 109.075-25.796 48.186.247 90.377 17.415 109.034 26.31l-3.419 13.008a15.78 15.78 0 00-.249 1.112c-2.271 12.315 1.029 24.916 9.057 34.574 8.128 9.78 20.118 15.398 32.903 15.417l63.951.06h.064c18.641-.001 34.941-11.696 40.57-29.121 8.691-26.911 3.305-54.87-15.578-80.854zm-13.501 71.46c-1.515 4.688-6.238 7.958-11.502 7.958h-.018l-63.951-.06c-3.684-.005-7.125-1.606-9.441-4.393-1.259-1.515-3.224-4.666-2.581-9.048l6.362-24.203a15.28 15.28 0 00-7.067-17.075c-2.467-1.442-61.27-35.328-134.478-35.705-.407-.002-.802-.003-1.208-.003-72.737 0-131.121 33.738-133.584 35.182a15.278 15.278 0 00-7.068 16.986l6.236 24.242c.637 4.391-1.34 7.542-2.605 9.056-2.319 2.774-5.757 4.364-9.441 4.364h-.018l-63.952-.06c-5.263-.008-9.988-3.294-11.49-7.992-5.592-17.481-1.774-35.446 11.348-53.394 34.857-47.676 123.657-82.207 211.302-82.207h.479c87.732.126 176.665 34.971 211.462 82.853 13.089 18.017 16.864 36.016 11.215 53.499z"/><path fill="#fecc16" d="M400.595 279.807l-47.691-50.075a15.279 15.279 0 00-11.063-4.741h-30.82v-20.823c0-8.438-6.84-15.278-15.278-15.278-8.437 0-15.278 6.84-15.278 15.278v20.823h-48.922v-20.823c0-8.438-6.84-15.278-15.278-15.278s-15.278 6.84-15.278 15.278v20.823h-30.819a15.28 15.28 0 00-11.063 4.741l-47.69 50.075C74.023 319.069 53.43 370.551 53.43 424.769v62.853c0 8.438 6.84 15.278 15.278 15.278H443.3c8.438 0 15.278-6.84 15.278-15.278v-62.853c.002-54.219-20.591-105.7-57.983-144.962zM83.986 472.344v-47.575c0-46.337 17.599-90.334 49.557-123.89l43.174-45.334h158.576l43.174 45.334c31.956 33.554 49.555 77.553 49.555 123.89v47.575H83.986z"/><path fill="#fecc16" d="M256.005 287.135c-44.09 0-79.959 35.87-79.959 79.959 0 44.09 35.87 79.96 79.959 79.96s79.959-35.87 79.959-79.96c0-44.09-35.869-79.959-79.959-79.959zm0 129.362c-27.242 0-49.403-22.162-49.403-49.404 0-27.241 22.162-49.403 49.403-49.403s49.403 22.162 49.403 49.403c0 27.242-22.162 49.404-49.403 49.404z"/></svg>