<?xml version="1.0" encoding="iso-8859-1"?>
<!-- Generator: Adobe Illustrator 19.0.0, SVG Export Plug-In . SVG Version: 6.00 Build 0)  -->
<svg version="1.1" id="Capa_1" xmlns="http://www.w3.org/2000/svg" xmlns:xlink="http://www.w3.org/1999/xlink" x="0px" y="0px"
	 viewBox="0 0 512 512" style="enable-background:new 0 0 512 512;" xml:space="preserve">
<g>
	<g>
		<path fill="#fecc16" d="M492.381,104.546c-19.646-27.033-54.05-51.433-96.876-68.703C352.91,18.667,303.454,9.169,256.245,9.101
			c-47.213-0.118-96.73,9.282-139.386,26.325c-42.9,17.141-77.387,41.435-97.104,68.404C0.817,129.733-4.641,157.652,3.97,184.569
			c5.586,17.462,21.881,29.211,40.558,29.238l63.951,0.06c0.021,0,0.042,0,0.064,0c12.752-0.001,24.733-5.583,32.875-15.322
			c8.056-9.635,11.393-22.227,9.156-34.549c-0.065-0.361-0.145-0.721-0.236-1.078l-3.365-13.082
			c18.634-8.891,60.854-26.069,109.075-25.796c48.186,0.247,90.377,17.415,109.034,26.31l-3.419,13.008
			c-0.097,0.368-0.179,0.739-0.249,1.112c-2.271,12.315,1.029,24.916,9.057,34.574c8.128,9.78,20.118,15.398,32.903,15.417
			l63.951,0.06c0.021,0,0.043,0,0.064,0c18.641-0.001,34.941-11.696,40.57-29.121C516.65,158.489,511.264,130.53,492.381,104.546z
			 M478.88,176.006c-1.515,4.688-6.238,7.958-11.502,7.958c-0.005,0-0.012,0-0.018,0l-63.951-0.06
			c-3.684-0.005-7.125-1.606-9.441-4.393c-1.259-1.515-3.224-4.666-2.581-9.048l6.362-24.203c1.743-6.633-1.146-13.613-7.067-17.075
			c-2.467-1.442-61.27-35.328-134.478-35.705c-0.407-0.002-0.802-0.003-1.208-0.003c-72.737,0-131.121,33.738-133.584,35.182
			c-5.883,3.45-8.767,10.38-7.068,16.986l6.236,24.242c0.637,4.391-1.34,7.542-2.605,9.056c-2.319,2.774-5.757,4.364-9.441,4.364
			c-0.006,0-0.012,0-0.018,0l-63.952-0.06c-5.263-0.008-9.988-3.294-11.49-7.992c-5.592-17.481-1.774-35.446,11.348-53.394
			c34.857-47.676,123.657-82.207,211.302-82.207c0.156,0,0.323,0,0.479,0c87.732,0.126,176.665,34.971,211.462,82.853
			C480.754,140.524,484.529,158.523,478.88,176.006z"/>
	</g>
</g>
<g>
	<g>
		<path fill="#fecc16" d="M400.595,279.807l-47.691-50.075c-2.885-3.028-6.882-4.741-11.063-4.741h-30.82v-20.823
			c0-8.438-6.84-15.278-15.278-15.278c-8.437,0-15.278,6.84-15.278,15.278v20.823h-48.922v-20.823
			c0-8.438-6.84-15.278-15.278-15.278s-15.278,6.84-15.278,15.278v20.823h-30.819c-4.181,0-8.18,1.714-11.063,4.741l-47.69,50.075
			c-37.392,39.262-57.985,90.744-57.985,144.962v62.853c0,8.438,6.84,15.278,15.278,15.278h374.592
			c8.438,0,15.278-6.84,15.278-15.278v-62.853C458.58,370.55,437.987,319.069,400.595,279.807z M83.986,472.344v-47.575
			c0-46.337,17.599-90.334,49.557-123.89l43.174-45.334h158.576l43.174,45.334c31.956,33.554,49.555,77.553,49.555,123.89v47.575
			H83.986z"/>
	</g>
</g>
<g>
	<g>
		<path fill="#fecc16" d="M256.005,287.135c-44.09,0-79.959,35.87-79.959,79.959c0,44.09,35.87,79.96,79.959,79.96s79.959-35.87,79.959-79.96
			C335.964,323.004,300.095,287.135,256.005,287.135z M256.005,416.497c-27.242,0-49.403-22.162-49.403-49.404
			c0-27.241,22.162-49.403,49.403-49.403s49.403,22.162,49.403,49.403C305.408,394.335,283.246,416.497,256.005,416.497z"/>
	</g>
</g>
<g>
</g>
<g>
</g>
<g>
</g>
<g>
</g>
<g>
</g>
<g>
</g>
<g>
</g>
<g>
</g>
<g>
</g>
<g>
</g>
<g>
</g>
<g>
</g>
<g>
</g>
<g>
</g>
<g>
</g>
</svg>
