<svg xmlns="http://www.w3.org/2000/svg" viewBox="0 0 512 512"><path d="M216.533 73.859c-42.56 16.842-70.494 58.353-70.509 103.836 0 16.512 13.358 29.983 30.004 29.983 16.619 0 30.004-13.446 30.004-29.983.04-28.447 22.936-51.607 51.606-51.628 28.136 0 51.677 23.718 51.677 51.578-.01 21.585-13.022 40.521-33.124 48.258-14.422 5.529-26.623 15.057-35.285 27.574-15.841 22.868-13.232 42.162-13.232 72.133 0 2.379.28 4.749.83 7.058a7.488 7.488 0 007.291 5.739c4.894 0 8.43-4.58 7.301-9.258-.587-2.43-.43-.715-.43-33.122.04-24.994 15.302-47.019 38.905-56.127 44.551-17.065 57.66-74.62 23.093-109.174-42.097-42.05-113.699-12.087-113.633 46.968-.02 8.248-6.741 14.977-15.002 14.996-8.261-.02-14.992-6.748-15.002-14.996-.021-54.06 45.418-100.096 102.783-96.428 49.768 3.095 90.511 44.857 90.511 96.437-.01 40.311-24.343 75.722-61.978 90.199-5.801 2.209-10.731 6.028-14.262 11.037-6.8 9.697-5.401 15.327-5.401 46.669-.02 8.248-6.751 14.976-15.002 14.987-4.14 0-7.501 3.368-7.501 7.498 0 15.746 37.47 6.154 37.505-22.485v-29.583c.019-6.297 3.87-11.715 10.041-14.124 43.609-16.751 71.639-58.213 71.599-104.196 0-78.328-79.598-132.897-152.789-103.846zm66.735 326.607c-11.691-19.365-38.662-18.963-50.564-1.052-13.07 19.676.639 46.567 25.214 46.567 22.643 0 37.73-25.007 25.35-45.515zm-29.174 30.047c-5.816-1.434-9.973-5.758-11.12-11.567-3.072-16.581 18.842-24.991 27.45-10.731 6.979 11.561-3.225 25.53-16.33 22.298z"/><path d="M384.383 34.529C251.159-42.769 79.981 14.818 20.129 156.41c-24.356 57.523-26.385 121.948-7.301 179.788 13.275 40.23 35.087 69.5 36.844 71.054l.03-.04-.02.05c.02.02.04.03.07.06.01 0 .01.011.02.021.01 0 .01.01.02.02 2.82 2.367 5.211 1.69 6.211 1.69l.02-.01c.095 0 .777-.153 1.42-.41h.02l.17-.08h.02c4.849-2.082 5.706-8.235 3.08-11.308C-55.015 237.51 60.68 15.094 256.038 15.094c134.827 0 241.029 109.953 241.029 240.943 0 133.146-107.808 240.943-241.029 240.943-51.126 0-99.982-15.817-141.277-45.729-2.3-1.67-5.47-1.879-7.971-.52L22.599 496.3c-4.003 2.141-7.616-1.354-7.591-4.429.021-1.796-1.819 2.136 31.974-60.266 2.717-5.004-.954-11.067-6.581-11.067a7.499 7.499 0 00-6.6 3.929C-.217 487.262-.014 485.157.007 491.871c.027 14.699 15.951 25.091 29.734 17.626l80.08-43.36c86.572 60.362 201.864 61.211 289.365 2.129 156.657-105.777 148.71-338.888-14.803-433.737z"/></svg>