<?xml version="1.0" encoding="iso-8859-1"?>
<!-- Generator: Adobe Illustrator 19.0.0, SVG Export Plug-In . SVG Version: 6.00 Build 0)  -->
<svg version="1.1" id="Capa_1" xmlns="http://www.w3.org/2000/svg" xmlns:xlink="http://www.w3.org/1999/xlink" x="0px" y="0px"
	 viewBox="0 0 512 512" style="enable-background:new 0 0 512 512;" xml:space="preserve">
<g>
	<g>
		<path d="M216.533,73.859c-42.56,16.842-70.494,58.353-70.509,103.836c0,16.512,13.358,29.983,30.004,29.983
			c16.619,0,30.004-13.446,30.004-29.983c0.04-28.447,22.936-51.607,51.606-51.628c28.136,0,51.677,23.718,51.677,51.578
			c-0.01,21.585-13.022,40.521-33.124,48.258c-14.422,5.529-26.623,15.057-35.285,27.574
			c-15.841,22.868-13.232,42.162-13.232,72.133c0,2.379,0.28,4.749,0.83,7.058c0.82,3.379,3.821,5.739,7.291,5.739
			c4.894,0,8.43-4.58,7.301-9.258c-0.587-2.43-0.43-0.715-0.43-33.122c0.04-24.994,15.302-47.019,38.905-56.127
			c44.551-17.065,57.66-74.62,23.093-109.174c-42.097-42.05-113.699-12.087-113.633,46.968c-0.02,8.248-6.741,14.977-15.002,14.996
			c-8.261-0.02-14.992-6.748-15.002-14.996c-0.021-54.06,45.418-100.096,102.783-96.428c49.768,3.095,90.511,44.857,90.511,96.437
			c-0.01,40.311-24.343,75.722-61.978,90.199c-5.801,2.209-10.731,6.028-14.262,11.037c-6.8,9.697-5.401,15.327-5.401,46.669
			c-0.02,8.248-6.751,14.976-15.002,14.987c-4.14,0-7.501,3.368-7.501,7.498c0,15.746,37.47,6.154,37.505-22.485v-29.583
			c0.019-6.297,3.87-11.715,10.041-14.124c43.609-16.751,71.639-58.213,71.599-104.196
			C369.322,99.377,289.724,44.808,216.533,73.859z"/>
	</g>
</g>
<g>
	<g>
		<path d="M283.268,400.466c-11.691-19.365-38.662-18.963-50.564-1.052c-13.07,19.676,0.639,46.567,25.214,46.567
			C280.561,445.981,295.648,420.974,283.268,400.466z M254.094,430.513c-5.816-1.434-9.973-5.758-11.12-11.567
			c-3.072-16.581,18.842-24.991,27.45-10.731C277.403,419.776,267.199,433.745,254.094,430.513z"/>
	</g>
</g>
<g>
	<g>
		<path d="M384.383,34.529C251.159-42.769,79.981,14.818,20.129,156.41c-24.356,57.523-26.385,121.948-7.301,179.788
			c13.275,40.23,35.087,69.5,36.844,71.054l0.03-0.04l-0.02,0.05c0.02,0.02,0.04,0.03,0.07,0.06c0.01,0,0.01,0.011,0.02,0.021
			c0.01,0,0.01,0.01,0.02,0.02c2.82,2.367,5.211,1.69,6.211,1.69l0.02-0.01c0.095,0,0.777-0.153,1.42-0.41c0.01,0,0.02,0,0.02,0
			s0.168-0.079,0.17-0.08h0.02c4.849-2.082,5.706-8.235,3.08-11.308C-55.015,237.51,60.68,15.094,256.038,15.094
			c134.827,0,241.029,109.953,241.029,240.943c0,133.146-107.808,240.943-241.029,240.943c-51.126,0-99.982-15.817-141.277-45.729
			c-2.3-1.67-5.47-1.879-7.971-0.52L22.599,496.3c-4.003,2.141-7.616-1.354-7.591-4.429c0.021-1.796-1.819,2.136,31.974-60.266
			c2.717-5.004-0.954-11.067-6.581-11.067c-2.76,0-5.291,1.509-6.6,3.929c-34.018,62.795-33.815,60.69-33.794,67.404
			c0.027,14.699,15.951,25.091,29.734,17.626l80.08-43.36c86.572,60.362,201.864,61.211,289.365,2.129
			C555.843,362.489,547.896,129.378,384.383,34.529z"/>
	</g>
</g>
<g>
</g>
<g>
</g>
<g>
</g>
<g>
</g>
<g>
</g>
<g>
</g>
<g>
</g>
<g>
</g>
<g>
</g>
<g>
</g>
<g>
</g>
<g>
</g>
<g>
</g>
<g>
</g>
<g>
</g>
</svg>
